# xmcd
#
# Track frame offsets: 
#        150
#        15058
#        29914
#        45729
#        58147
#        75568
#        90512
#        102755
#        115107
#        135162
#        146828
#        158846
#
# Disc length: 2276 seconds
#
# Revision: 1
# Processed by: cddbd v1.5.2PL0 Copyright (c) Steve Scherf et al.
# Submitted via: ExactAudioCopy v1.3
#
DISCID=8f08e20c
DTITLE=Μάνος Χατζιδάκις - 100 Τραγούδια (Ηχογραφήσεις 1955-1972) [CD8)
DYEAR=2008
DGENRE=Vocal
TTITLE0=Μανώλης Μητσιάς, Δήμητρα Γαλάνη - Ο Μύθος
TTITLE1=Δήμητρα Γαλάνη - Κάθε Τρελό Παιδί
TTITLE2=Λάκης Παππάς - Μια Παναγιά
TTITLE3=Ζωή Φυτούση - Τ' Αστέρι Του Βοριά
TTITLE4=Καίτη Μπελίντα - Ο Ταχυδρόμος Πέθανε
TTITLE5=Ορχήστρα - Αστρολογία
TTITLE6=Δήμητρα Γαλάνη - Αγάπη Μέσα Στην Καρδιά
TTITLE7=Μανώλης Μητσιάς - Κυκλαδίτικο
TTITLE8=Ορχήστρα - Διακοπές Στην Αθήνα (Στη Δροσιά Της Μέρας)
TTITLE9=Λόλα Τσουκάτου - Η Προδοσία (Έγινε Παρεξήγηση)
TTITLE10=Λάκης Παππάς, Χορωδία - Κυρ Μιχάλης
TTITLE11=Ορχήστρα - Στο Λαύριο Γίνεται Χορός
EXTD=
EXTT0=
EXTT1=
EXTT2=
EXTT3=
EXTT4=
EXTT5=
EXTT6=
EXTT7=
EXTT8=
EXTT9=
EXTT10=
EXTT11=
PLAYORDER=
